<svg width="24" height="24" viewBox="0 0 24 24" fill="none" xmlns="http://www.w3.org/2000/svg">
<path d="M22 9.67C21.9368 9.48709 21.822 9.32643 21.6693 9.2075C21.5167 9.08858 21.3328 9.0165 21.14 9L15.45 8.17L12.9 3C12.8181 2.83093 12.6903 2.68834 12.5311 2.58857C12.3719 2.48881 12.1879 2.43589 12 2.43589C11.8121 2.43589 11.6281 2.48881 11.4689 2.58857C11.3097 2.68834 11.1819 2.83093 11.1 3L8.55 8.16L2.86 9C2.67492 9.02631 2.50092 9.10396 2.35775 9.22416C2.21458 9.34435 2.10796 9.50227 2.05 9.68C1.99695 9.85367 1.99218 10.0385 2.03623 10.2147C2.08027 10.3909 2.17146 10.5517 2.3 10.68L6.43 14.68L5.43 20.36C5.3943 20.5475 5.41299 20.7413 5.48387 20.9185C5.55475 21.0956 5.67485 21.2489 5.83 21.36C5.98122 21.4681 6.15957 21.5319 6.34505 21.5443C6.53052 21.5567 6.71577 21.5171 6.88 21.43L12 18.76L17.1 21.44C17.2403 21.5192 17.3989 21.5605 17.56 21.56C17.7718 21.5608 17.9784 21.4942 18.15 21.37C18.3051 21.2589 18.4252 21.1056 18.4961 20.9285C18.567 20.7513 18.5857 20.5575 18.55 20.37L17.55 14.69L21.68 10.69C21.8244 10.5677 21.9311 10.4069 21.9877 10.2263C22.0444 10.0458 22.0486 9.85287 22 9.67ZM15.85 13.67C15.7327 13.7834 15.645 13.9238 15.5944 14.079C15.5439 14.2341 15.5321 14.3993 15.56 14.56L16.28 18.75L12.52 16.75C12.3753 16.673 12.2139 16.6327 12.05 16.6327C11.8861 16.6327 11.7247 16.673 11.58 16.75L7.82 18.75L8.54 14.56C8.56794 14.3993 8.55611 14.2341 8.50557 14.079C8.45502 13.9238 8.36728 13.7834 8.25 13.67L5.25 10.67L9.46 10.06C9.622 10.0375 9.776 9.97554 9.9085 9.87965C10.041 9.78376 10.148 9.65684 10.22 9.51L12 5.7L13.88 9.52C13.952 9.66684 14.059 9.79376 14.1915 9.88965C14.324 9.98554 14.478 10.0475 14.64 10.07L18.85 10.68L15.85 13.67Z" fill="#040305"/>
</svg>
