<svg width="33" height="20" viewBox="0 0 33 20" fill="none" xmlns="http://www.w3.org/2000/svg">
<path d="M7.968 15L4.96 10.92H3.024V15H1.328V4.44H5.184C5.888 4.44 6.512 4.57867 7.056 4.856C7.6 5.12267 8.02133 5.50133 8.32 5.992C8.61867 6.48267 8.768 7.04267 8.768 7.672C8.768 8.36533 8.58667 8.97333 8.224 9.496C7.86133 10.0187 7.36533 10.4027 6.736 10.648L9.904 15H7.968ZM3.024 9.416H5.152C5.73867 9.416 6.19733 9.256 6.528 8.936C6.85867 8.616 7.024 8.2 7.024 7.688C7.024 7.16533 6.85867 6.744 6.528 6.424C6.19733 6.104 5.73867 5.944 5.152 5.944H3.024V9.416ZM15.3493 15.176C14.5066 15.176 13.7546 15 13.0933 14.648C12.4426 14.296 11.9306 13.784 11.5573 13.112C11.1839 12.44 10.9973 11.6453 10.9973 10.728V4.44H12.6933V10.84C12.6933 11.736 12.9386 12.424 13.4293 12.904C13.9306 13.384 14.5706 13.624 15.3493 13.624C16.1173 13.624 16.7466 13.384 17.2373 12.904C17.7279 12.424 17.9733 11.736 17.9733 10.84V4.44H19.6693V10.728C19.6693 11.6453 19.4826 12.44 19.1093 13.112C18.7359 13.784 18.2186 14.296 17.5573 14.648C16.9066 15 16.1706 15.176 15.3493 15.176Z" fill="#FFFBFF"/>
<path d="M30.411 11.9068C30.2122 12.1938 29.7878 12.1938 29.589 11.9068L27.9456 9.53475C27.7159 9.20315 27.9532 8.75 28.3566 8.75L31.6434 8.75C32.0468 8.75 32.2841 9.20315 32.0544 9.53475L30.411 11.9068Z" fill="#FFFBFF"/>
</svg>
