<svg width="162" height="32" viewBox="0 0 162 32" fill="none" xmlns="http://www.w3.org/2000/svg">
<path d="M54.0225 15.5916C53.9284 14.9893 53.6743 14.5 53.2602 14.1235C52.865 13.7471 52.225 13.5589 51.3404 13.5589C50.8322 13.5589 50.3805 13.653 49.9853 13.8412C49.6088 14.0294 49.2983 14.2835 49.0536 14.6035C48.8089 14.9234 48.6207 15.2999 48.4889 15.7328C48.376 16.1468 48.3196 16.5891 48.3196 17.0597C48.3196 17.5302 48.376 17.9819 48.4889 18.4148C48.6207 18.8289 48.8089 19.1959 49.0536 19.5159C49.3171 19.8359 49.6465 20.09 50.0417 20.2782C50.4558 20.4664 50.9452 20.5605 51.5098 20.5605C52.2627 20.5605 52.8273 20.4099 53.2037 20.1088C53.5802 19.7888 53.8625 19.3371 54.0507 18.7536H58.3703C58.2573 19.5253 58.0315 20.2499 57.6927 20.9275C57.3539 21.5863 56.8928 22.1603 56.3093 22.6497C55.7258 23.139 55.0106 23.5249 54.1636 23.8072C53.3355 24.0895 52.385 24.2307 51.3122 24.2307C50.1264 24.2307 49.0724 24.0331 48.1502 23.6378C47.2467 23.2426 46.4845 22.7156 45.8633 22.0568C45.2422 21.3981 44.7717 20.6358 44.4517 19.77C44.1506 18.9042 44 18.0008 44 17.0597C44 16.1186 44.1506 15.2152 44.4517 14.3494C44.7717 13.4836 45.2422 12.7213 45.8633 12.0626C46.4845 11.4038 47.2467 10.8768 48.1502 10.4816C49.0724 10.0863 50.1264 9.88868 51.3122 9.88868C52.4603 9.88868 53.4578 10.0487 54.3048 10.3686C55.1518 10.6886 55.8576 11.1121 56.4222 11.6391C57.0057 12.1661 57.448 12.7778 57.7491 13.4742C58.0691 14.1518 58.2667 14.8576 58.342 15.5916H54.0225Z" fill="#FFFBFF"/>
<path d="M68.3982 20.5323C68.8876 20.5323 69.3299 20.4382 69.7251 20.2499C70.1204 20.0617 70.4592 19.817 70.7415 19.5159C71.0238 19.1959 71.2403 18.8289 71.3909 18.4148C71.5602 17.9819 71.6449 17.5302 71.6449 17.0597C71.6449 16.5891 71.5602 16.1468 71.3909 15.7328C71.2403 15.3187 71.0238 14.9517 70.7415 14.6317C70.4592 14.3117 70.1204 14.0577 69.7251 13.8694C69.3299 13.6812 68.8876 13.5871 68.3982 13.5871C67.9089 13.5871 67.4666 13.6812 67.0713 13.8694C66.6761 14.0577 66.3373 14.3117 66.055 14.6317C65.7726 14.9517 65.5468 15.3187 65.3774 15.7328C65.2268 16.1468 65.1515 16.5891 65.1515 17.0597C65.1515 17.5302 65.2268 17.9819 65.3774 18.4148C65.5468 18.8289 65.7726 19.1959 66.055 19.5159C66.3373 19.817 66.6761 20.0617 67.0713 20.2499C67.4666 20.4382 67.9089 20.5323 68.3982 20.5323ZM75.9645 10.2557V23.8637H71.6449V21.9439C71.4756 22.2638 71.2497 22.565 70.9674 22.8473C70.685 23.1108 70.3557 23.3461 69.9792 23.5531C69.6216 23.7413 69.2264 23.8919 68.7935 24.0048C68.3606 24.1366 67.9277 24.2025 67.4948 24.2025C66.5161 24.2025 65.6126 24.0237 64.7845 23.666C63.9752 23.2896 63.2788 22.7908 62.6953 22.1697C62.1118 21.5298 61.6601 20.7769 61.3402 19.9111C61.0202 19.0265 60.8602 18.0761 60.8602 17.0597C60.8602 16.0433 61.0202 15.1022 61.3402 14.2365C61.6601 13.3518 62.1118 12.599 62.6953 11.9779C63.2788 11.3379 63.9752 10.8392 64.7845 10.4816C65.6126 10.1051 66.5161 9.91691 67.4948 9.91691C67.9277 9.91691 68.3606 9.98279 68.7935 10.1145C69.2264 10.2275 69.6216 10.3875 69.9792 10.5945C70.3557 10.8015 70.685 11.0462 70.9674 11.3285C71.2497 11.6109 71.4756 11.9026 71.6449 12.2037V10.2557H75.9645Z" fill="#FFFBFF"/>
<path d="M87.3355 15.8457C87.9378 16.0151 88.5024 16.2033 89.0294 16.4103C89.5564 16.5986 90.0176 16.8432 90.4128 17.1444C90.8081 17.4267 91.1186 17.7843 91.3445 18.2172C91.5892 18.6501 91.7115 19.1959 91.7115 19.8547C91.7115 20.664 91.5515 21.351 91.2316 21.9156C90.9116 22.4615 90.4693 22.9132 89.9046 23.2708C89.34 23.6096 88.6812 23.8543 87.9284 24.0048C87.1943 24.1554 86.4038 24.2307 85.5569 24.2307C83.6182 24.2307 82.0843 23.8072 80.955 22.9602C79.8445 22.1133 79.2893 20.8993 79.2893 19.3183H83.5241C83.5241 20.0335 83.7218 20.5511 84.117 20.871C84.5311 21.1722 85.0581 21.3228 85.698 21.3228C86.225 21.3228 86.6485 21.2287 86.9685 21.0404C87.3073 20.8334 87.4767 20.504 87.4767 20.0523C87.4767 19.7888 87.4014 19.5818 87.2508 19.4312C87.119 19.2618 86.9026 19.1112 86.6015 18.9795C86.3191 18.8289 85.9427 18.6877 85.4722 18.556C85.0204 18.4054 84.4746 18.2266 83.8347 18.0196C83.27 17.8502 82.7336 17.6714 82.2254 17.4832C81.7173 17.2761 81.2655 17.0315 80.8703 16.7491C80.4939 16.4668 80.1927 16.1092 79.9669 15.6763C79.741 15.2434 79.6281 14.6976 79.6281 14.0388C79.6281 12.6272 80.1645 11.5826 81.2373 10.905C82.329 10.2275 83.797 9.88868 85.6416 9.88868C86.6203 9.88868 87.4767 10.011 88.2107 10.2557C88.9636 10.4816 89.5753 10.8015 90.0458 11.2156C90.5352 11.6297 90.9022 12.119 91.1469 12.6837C91.3915 13.2483 91.5139 13.8506 91.5139 14.4905H87.2508C87.2508 13.9259 87.1002 13.493 86.7991 13.1919C86.5168 12.8719 86.0744 12.7119 85.4722 12.7119C85.0393 12.7119 84.6628 12.8154 84.3429 13.0225C84.0229 13.2107 83.8629 13.5118 83.8629 13.9259C83.8629 14.1706 83.9382 14.3776 84.0888 14.547C84.2393 14.6976 84.4558 14.8387 84.7381 14.9705C85.0393 15.1022 85.4063 15.234 85.8392 15.3657C86.2721 15.4975 86.7708 15.6575 87.3355 15.8457Z" fill="#FFFBFF"/>
<path d="M98.5653 18.1043C98.5842 18.5184 98.6406 18.9136 98.7347 19.29C98.8477 19.6476 99.017 19.9676 99.2429 20.2499C99.4876 20.5134 99.7981 20.7299 100.175 20.8993C100.551 21.0499 101.022 21.1251 101.586 21.1251C102.339 21.1251 102.904 20.9746 103.28 20.6734C103.675 20.3723 103.948 20.0053 104.099 19.5724H108.334C108.24 20.2123 108.014 20.8146 107.656 21.3792C107.317 21.9439 106.856 22.4426 106.273 22.8755C105.708 23.2896 105.031 23.619 104.24 23.8637C103.468 24.1084 102.593 24.2307 101.614 24.2307C100.429 24.2307 99.3747 24.0613 98.4524 23.7225C97.549 23.3649 96.7867 22.8661 96.1656 22.2262C95.5445 21.5863 95.0739 20.8334 94.754 19.9676C94.434 19.083 94.274 18.1137 94.274 17.0597C94.274 16.0621 94.4246 15.1305 94.7257 14.2647C95.0457 13.3989 95.5068 12.646 96.1091 12.0061C96.7302 11.3474 97.4831 10.8298 98.3677 10.4533C99.2711 10.0769 100.316 9.88868 101.501 9.88868C102.574 9.88868 103.534 10.0581 104.381 10.3969C105.247 10.7357 105.981 11.1874 106.583 11.752C107.204 12.3167 107.675 12.9754 107.995 13.7283C108.334 14.4811 108.503 15.2716 108.503 16.0998C108.503 16.3821 108.494 16.6833 108.475 17.0032C108.475 17.3232 108.437 17.6902 108.362 18.1043H98.5653ZM101.473 12.7684C100.626 12.7684 99.9299 13.0131 99.3841 13.5024C98.8382 13.9918 98.5653 14.6976 98.5653 15.6198H104.268C104.268 14.7352 104.005 14.0388 103.478 13.5306C102.97 13.0225 102.301 12.7684 101.473 12.7684Z" fill="#FFFBFF"/>
<path d="M116.328 23.8637H112.008V4.10106H116.328V12.2037C116.497 11.9026 116.723 11.6109 117.005 11.3285C117.288 11.0462 117.617 10.8015 117.993 10.5945C118.37 10.3875 118.765 10.2275 119.179 10.1145C119.612 9.98279 120.054 9.91691 120.506 9.91691C121.485 9.91691 122.379 10.1051 123.188 10.4816C124.016 10.8392 124.722 11.3379 125.306 11.9779C125.889 12.599 126.341 13.3518 126.661 14.2365C126.981 15.1022 127.141 16.0433 127.141 17.0597C127.141 18.0761 126.981 19.0265 126.661 19.9111C126.341 20.7769 125.889 21.5298 125.306 22.1697C124.722 22.7908 124.016 23.2896 123.188 23.666C122.379 24.0237 121.485 24.2025 120.506 24.2025C120.054 24.2025 119.612 24.1366 119.179 24.0048C118.765 23.8919 118.37 23.7413 117.993 23.5531C117.617 23.3461 117.288 23.1108 117.005 22.8473C116.723 22.565 116.497 22.2638 116.328 21.9439V23.8637ZM119.603 20.5323C120.073 20.5323 120.506 20.4382 120.901 20.2499C121.297 20.0617 121.635 19.817 121.918 19.5159C122.2 19.1959 122.416 18.8289 122.567 18.4148C122.736 17.9819 122.821 17.5302 122.821 17.0597C122.821 16.5891 122.736 16.1468 122.567 15.7328C122.416 15.3187 122.2 14.9517 121.918 14.6317C121.635 14.3117 121.297 14.0577 120.901 13.8694C120.506 13.6812 120.073 13.5871 119.603 13.5871C119.113 13.5871 118.662 13.6812 118.247 13.8694C117.852 14.0577 117.513 14.3117 117.231 14.6317C116.949 14.9517 116.723 15.3187 116.553 15.7328C116.403 16.1468 116.328 16.5891 116.328 17.0597C116.328 17.5302 116.403 17.9819 116.553 18.4148C116.723 18.8289 116.949 19.1959 117.231 19.5159C117.513 19.817 117.852 20.0617 118.247 20.2499C118.662 20.4382 119.113 20.5323 119.603 20.5323Z" fill="#FFFBFF"/>
<path d="M129.928 5.73853C129.928 4.96685 130.191 4.31751 130.718 3.7905C131.245 3.2635 131.904 3 132.694 3C133.09 3 133.457 3.07529 133.795 3.22586C134.134 3.35761 134.426 3.54582 134.671 3.7905C134.934 4.03518 135.132 4.32692 135.264 4.66571C135.414 5.00449 135.489 5.3621 135.489 5.73853C135.489 6.11496 135.414 6.47257 135.264 6.81136C135.132 7.13133 134.934 7.42306 134.671 7.68656C134.426 7.93124 134.134 8.12887 133.795 8.27944C133.457 8.41119 133.09 8.47707 132.694 8.47707C132.299 8.47707 131.932 8.41119 131.593 8.27944C131.273 8.12887 130.982 7.93124 130.718 7.68656C130.473 7.42306 130.276 7.13133 130.125 6.81136C129.994 6.47257 129.928 6.11496 129.928 5.73853ZM130.549 10.2557H134.868V23.8637H130.549V10.2557Z" fill="#FFFBFF"/>
<path d="M147.607 23.8637C147.287 23.9201 146.882 23.9672 146.393 24.0048C145.922 24.0613 145.367 24.0895 144.727 24.0895C144.219 24.0895 143.683 24.0519 143.118 23.9766C142.553 23.9013 142.026 23.7131 141.537 23.412C141.066 23.092 140.671 22.612 140.351 21.9721C140.05 21.3134 139.899 20.4193 139.899 19.29V13.4742H137.754V10.2557H139.899V6.21848H144.191V10.2557H147.296V13.4742H144.191V18.3301C144.191 18.8383 144.238 19.243 144.332 19.5441C144.426 19.8453 144.558 20.0805 144.727 20.2499C144.897 20.4005 145.094 20.504 145.32 20.5605C145.546 20.617 145.791 20.6452 146.054 20.6452C146.318 20.6452 146.59 20.6452 146.873 20.6452C147.155 20.6264 147.4 20.5981 147.607 20.5605V23.8637Z" fill="#FFFBFF"/>
<path d="M157.624 15.8457C158.226 16.0151 158.791 16.2033 159.318 16.4103C159.845 16.5986 160.306 16.8432 160.701 17.1444C161.097 17.4267 161.407 17.7843 161.633 18.2172C161.878 18.6501 162 19.1959 162 19.8547C162 20.664 161.84 21.351 161.52 21.9156C161.2 22.4615 160.758 22.9132 160.193 23.2708C159.629 23.6096 158.97 23.8543 158.217 24.0048C157.483 24.1554 156.692 24.2307 155.845 24.2307C153.907 24.2307 152.373 23.8072 151.244 22.9602C150.133 22.1133 149.578 20.8993 149.578 19.3183H153.813C153.813 20.0335 154.01 20.5511 154.406 20.871C154.82 21.1722 155.347 21.3228 155.987 21.3228C156.514 21.3228 156.937 21.2287 157.257 21.0404C157.596 20.8334 157.765 20.504 157.765 20.0523C157.765 19.7888 157.69 19.5818 157.539 19.4312C157.408 19.2618 157.191 19.1112 156.89 18.9795C156.608 18.8289 156.231 18.6877 155.761 18.556C155.309 18.4054 154.763 18.2266 154.123 18.0196C153.559 17.8502 153.022 17.6714 152.514 17.4832C152.006 17.2761 151.554 17.0315 151.159 16.7491C150.782 16.4668 150.481 16.1092 150.255 15.6763C150.03 15.2434 149.917 14.6976 149.917 14.0388C149.917 12.6272 150.453 11.5826 151.526 10.905C152.617 10.2275 154.086 9.88868 155.93 9.88868C156.909 9.88868 157.765 10.011 158.499 10.2557C159.252 10.4816 159.864 10.8015 160.334 11.2156C160.824 11.6297 161.191 12.119 161.435 12.6837C161.68 13.2483 161.802 13.8506 161.802 14.4905H157.539C157.539 13.9259 157.389 13.493 157.088 13.1919C156.805 12.8719 156.363 12.7119 155.761 12.7119C155.328 12.7119 154.951 12.8154 154.631 13.0225C154.311 13.2107 154.151 13.5118 154.151 13.9259C154.151 14.1706 154.227 14.3776 154.377 14.547C154.528 14.6976 154.744 14.8387 155.027 14.9705C155.328 15.1022 155.695 15.234 156.128 15.3657C156.561 15.4975 157.059 15.6575 157.624 15.8457Z" fill="#FFFBFF"/>
<circle r="6" transform="matrix(1 0 0 -1 16.3019 16)" fill="#FFFBFF" stroke="#FFFBFF" stroke-width="2"/>
<path d="M8.75 28.5574C10.6761 29.6694 12.8323 30.3235 15.0517 30.469C17.271 30.6144 19.4941 30.2474 21.5489 29.3963C23.6037 28.5451 25.4352 27.2327 26.9017 25.5605C28.3681 23.8883 29.4303 21.9012 30.0059 19.7529" stroke="#FFFBFF" stroke-width="3" stroke-linecap="round"/>
<circle cx="3.80195" cy="21.5" r="1.5" fill="#FFFBFF"/>
<path d="M23.25 3.44263C21.3239 2.33057 19.1677 1.67651 16.9483 1.53104C14.729 1.38558 12.5059 1.75261 10.4511 2.60374C8.39627 3.45488 6.56479 4.7673 5.09832 6.43948C3.63186 8.11167 2.56972 10.0988 1.99408 12.2471" stroke="#FFFBFF" stroke-width="3" stroke-linecap="round"/>
<circle cx="28.8019" cy="10.5" r="1.5" fill="#FFFBFF"/>
</svg>
