<svg width="24" height="24" viewBox="0 0 24 24" fill="none" xmlns="http://www.w3.org/2000/svg">
<path d="M12.43 4.1C12.2676 4.02974 12.0895 4.00383 11.9138 4.02491C11.7381 4.046 11.5712 4.11331 11.43 4.22L6.65 8H3C2.73478 8 2.48043 8.10536 2.29289 8.29289C2.10536 8.48043 2 8.73478 2 9V15C2 15.2652 2.10536 15.5196 2.29289 15.7071C2.48043 15.8946 2.73478 16 3 16H6.65L11.38 19.78C11.5559 19.9212 11.7744 19.9987 12 20C12.1494 20.0025 12.297 19.9681 12.43 19.9C12.6002 19.819 12.744 19.6915 12.8448 19.5322C12.9457 19.373 12.9995 19.1885 13 19V5C12.9995 4.81151 12.9457 4.62702 12.8448 4.46778C12.744 4.30854 12.6002 4.18105 12.43 4.1ZM11 16.92L7.62 14.22C7.44406 14.0788 7.22556 14.0013 7 14H4V10H7C7.22556 9.99869 7.44406 9.92116 7.62 9.78L11 7.08V16.92ZM19.66 6.34C19.4717 6.1517 19.2163 6.04591 18.95 6.04591C18.6837 6.04591 18.4283 6.1517 18.24 6.34C18.0517 6.5283 17.9459 6.7837 17.9459 7.05C17.9459 7.3163 18.0517 7.5717 18.24 7.76C18.8289 8.34794 19.289 9.05193 19.5911 9.82725C19.8933 10.6026 20.0309 11.4323 19.9951 12.2636C19.9594 13.095 19.7511 13.9098 19.3835 14.6563C19.016 15.4028 18.4971 16.0648 17.86 16.6C17.7053 16.7323 17.5946 16.9087 17.5428 17.1056C17.491 17.3025 17.5005 17.5105 17.5701 17.7018C17.6396 17.8931 17.766 18.0587 17.9321 18.1763C18.0983 18.2939 18.2964 18.358 18.5 18.36C18.7337 18.3605 18.9601 18.2791 19.14 18.13C19.9909 17.4173 20.6843 16.5353 21.1759 15.5401C21.6675 14.545 21.9466 13.4584 21.9955 12.3495C22.0444 11.2406 21.862 10.1336 21.4599 9.09904C21.0579 8.06445 20.4449 7.12485 19.66 6.34ZM16.83 9.17C16.7368 9.07676 16.6261 9.0028 16.5042 8.95234C16.3824 8.90188 16.2519 8.87591 16.12 8.87591C15.9881 8.87591 15.8576 8.90188 15.7358 8.95234C15.6139 9.0028 15.5032 9.07676 15.41 9.17C15.3168 9.26324 15.2428 9.37393 15.1923 9.49575C15.1419 9.61757 15.1159 9.74814 15.1159 9.88C15.1159 10.0119 15.1419 10.1424 15.1923 10.2642C15.2428 10.3861 15.3168 10.4968 15.41 10.59C15.7856 10.9633 15.9978 11.4704 16 12C16.0002 12.2913 15.9368 12.5792 15.8142 12.8435C15.6915 13.1078 15.5126 13.3421 15.29 13.53C15.1887 13.6139 15.105 13.717 15.0437 13.8334C14.9823 13.9497 14.9445 14.0771 14.9325 14.208C14.9204 14.339 14.9343 14.4711 14.9733 14.5967C15.0124 14.7223 15.0758 14.839 15.16 14.94C15.2447 15.0405 15.3483 15.1234 15.465 15.1838C15.5817 15.2443 15.7092 15.2811 15.8401 15.2923C15.9711 15.3034 16.1029 15.2886 16.2282 15.2488C16.3534 15.2089 16.4696 15.1448 16.57 15.06C17.0171 14.6851 17.3768 14.2169 17.6238 13.6883C17.8709 13.1597 17.9992 12.5835 18 12C17.9944 10.9401 17.5744 9.92445 16.83 9.17Z" fill="#FFFBFF"/>
</svg>
