<svg width="21" height="16" viewBox="0 0 21 16" fill="none" xmlns="http://www.w3.org/2000/svg">
<path d="M11.382 4.99456C11.382 5.01474 11.382 5.03493 11.383 5.05389L8.44656 9.3195C7.97089 9.29787 7.49357 9.3813 7.04096 9.56774C6.84145 9.64911 6.65449 9.74903 6.47908 9.86439L0.0311096 7.20997C0.0311601 7.20997 -0.118092 9.66456 0.503693 11.4939L5.06205 13.3748C5.29092 14.3976 5.99259 15.2948 7.02778 15.7264C8.72148 16.434 10.6743 15.6275 11.3789 13.9331C11.5622 13.4901 11.6477 13.0256 11.6354 12.5621L15.8369 9.5595C15.8709 9.56053 15.9059 9.56156 15.9399 9.56156C18.4543 9.56156 20.4979 7.51177 20.4979 4.99456C20.4979 2.47713 18.4543 0.429199 15.9399 0.429199C13.4266 0.429199 11.382 2.47713 11.382 4.99456ZM10.6774 13.6385C10.1321 14.9477 8.62764 15.5688 7.3199 15.0239C6.7166 14.7725 6.26112 14.3121 5.99836 13.7631L7.48213 14.378C8.44656 14.7798 9.55303 14.3224 9.95393 13.3583C10.3561 12.3931 9.89985 11.2848 8.93593 10.8831L7.4021 10.2476C7.99396 10.023 8.66678 10.0148 9.29542 10.2764C9.9292 10.5401 10.4209 11.0366 10.6815 11.6711C10.9421 12.3056 10.9411 13.006 10.6774 13.6385V13.6385ZM15.9399 8.0371C14.2661 8.0371 12.9034 6.67229 12.9034 4.99456C12.9034 3.31816 14.2661 1.95294 15.9399 1.95294C17.6148 1.95294 18.9775 3.31816 18.9775 4.99456C18.9775 6.67229 17.6148 8.0371 15.9399 8.0371ZM13.6646 4.98992C13.6646 3.72781 14.6864 2.70415 15.9451 2.70415C17.2048 2.70415 18.2266 3.72781 18.2266 4.98992C18.2266 6.25214 17.2048 7.27486 15.9451 7.27486C14.6864 7.27486 13.6646 6.25214 13.6646 4.98992V4.98992Z" fill="white"/>
</svg>
